<svg xmlns="http://www.w3.org/2000/svg" xmlns:xlink="http://www.w3.org/1999/xlink" width="50" zoomAndPan="magnify" viewBox="0 0 37.5 37.499999" height="50" preserveAspectRatio="xMidYMid meet" version="1.0"><defs><g/><clipPath id="738e19766b"><path d="M 3.699219 3.699219 L 33.304688 3.699219 L 33.304688 33.304688 L 3.699219 33.304688 Z M 3.699219 3.699219 " clip-rule="nonzero"/></clipPath><clipPath id="1b2023a0ee"><path d="M 0.699219 0.699219 L 30.304688 0.699219 L 30.304688 30.304688 L 0.699219 30.304688 Z M 0.699219 0.699219 " clip-rule="nonzero"/></clipPath><clipPath id="c8ccca822f"><rect x="0" width="31" y="0" height="31"/></clipPath><clipPath id="90c432b78f"><path d="M 33 1 L 37.007812 1 L 37.007812 36 L 33 36 Z M 33 1 " clip-rule="nonzero"/></clipPath></defs><g clip-path="url(#738e19766b)"><g transform="matrix(1, 0, 0, 1, 3, 3)"><g clip-path="url(#c8ccca822f)"><g clip-path="url(#1b2023a0ee)"><path fill="#d9d9d9" d="M 0.699219 30.304688 L 0.699219 0.699219 L 30.304688 0.699219 L 30.304688 30.304688 Z M 0.699219 30.304688 " fill-opacity="1" fill-rule="nonzero"/></g></g></g></g><path fill="#004aad" d="M 2.21875 31.824219 C 2.21875 31.628906 2.257812 31.441406 2.332031 31.257812 C 2.40625 31.078125 2.515625 30.917969 2.652344 30.777344 C 2.792969 30.640625 2.953125 30.53125 3.132812 30.457031 C 3.316406 30.382812 3.503906 30.34375 3.699219 30.34375 C 3.898438 30.34375 4.085938 30.382812 4.265625 30.457031 C 4.449219 30.53125 4.609375 30.640625 4.746094 30.777344 C 4.886719 30.917969 4.992188 31.078125 5.066406 31.257812 C 5.144531 31.441406 5.179688 31.628906 5.179688 31.824219 C 5.179688 32.023438 5.144531 32.210938 5.066406 32.390625 C 4.992188 32.574219 4.886719 32.734375 4.746094 32.871094 C 4.609375 33.011719 4.449219 33.117188 4.265625 33.191406 C 4.085938 33.269531 3.898438 33.304688 3.699219 33.304688 C 3.503906 33.304688 3.316406 33.269531 3.132812 33.191406 C 2.953125 33.117188 2.792969 33.011719 2.652344 32.871094 C 2.515625 32.734375 2.40625 32.574219 2.332031 32.390625 C 2.257812 32.210938 2.21875 32.023438 2.21875 31.824219 Z M 2.21875 25.90625 L 2.21875 25.902344 C 2.21875 25.707031 2.257812 25.519531 2.332031 25.335938 C 2.40625 25.15625 2.515625 24.996094 2.652344 24.855469 C 2.792969 24.71875 2.953125 24.613281 3.132812 24.535156 C 3.316406 24.460938 3.503906 24.421875 3.699219 24.421875 C 3.898438 24.421875 4.085938 24.460938 4.265625 24.535156 C 4.449219 24.613281 4.609375 24.71875 4.746094 24.855469 C 4.886719 24.996094 4.992188 25.15625 5.066406 25.335938 C 5.144531 25.519531 5.179688 25.707031 5.179688 25.902344 L 5.179688 25.90625 C 5.179688 26.101562 5.144531 26.289062 5.066406 26.472656 C 4.992188 26.652344 4.886719 26.8125 4.746094 26.949219 C 4.609375 27.089844 4.449219 27.195312 4.265625 27.273438 C 4.085938 27.347656 3.898438 27.382812 3.699219 27.382812 C 3.503906 27.382812 3.316406 27.347656 3.132812 27.273438 C 2.953125 27.195312 2.792969 27.089844 2.652344 26.949219 C 2.515625 26.8125 2.40625 26.652344 2.332031 26.472656 C 2.257812 26.289062 2.21875 26.101562 2.21875 25.90625 Z M 2.21875 19.984375 C 2.21875 19.785156 2.257812 19.597656 2.332031 19.417969 C 2.40625 19.234375 2.515625 19.074219 2.652344 18.9375 C 2.792969 18.796875 2.953125 18.691406 3.132812 18.613281 C 3.316406 18.539062 3.503906 18.503906 3.699219 18.503906 C 3.898438 18.503906 4.085938 18.539062 4.265625 18.613281 C 4.449219 18.691406 4.609375 18.796875 4.746094 18.9375 C 4.886719 19.074219 4.992188 19.234375 5.066406 19.417969 C 5.144531 19.597656 5.179688 19.785156 5.179688 19.984375 C 5.179688 20.179688 5.144531 20.367188 5.066406 20.550781 C 4.992188 20.730469 4.886719 20.890625 4.746094 21.03125 C 4.609375 21.167969 4.449219 21.277344 4.265625 21.351562 C 4.085938 21.425781 3.898438 21.464844 3.699219 21.464844 C 3.503906 21.464844 3.316406 21.425781 3.132812 21.351562 C 2.953125 21.277344 2.792969 21.167969 2.652344 21.03125 C 2.515625 20.890625 2.40625 20.730469 2.332031 20.550781 C 2.257812 20.367188 2.21875 20.179688 2.21875 19.984375 Z M 2.21875 14.0625 C 2.21875 13.863281 2.257812 13.675781 2.332031 13.496094 C 2.40625 13.3125 2.515625 13.152344 2.652344 13.015625 C 2.792969 12.875 2.953125 12.769531 3.132812 12.695312 C 3.316406 12.617188 3.503906 12.582031 3.699219 12.582031 C 3.898438 12.582031 4.085938 12.617188 4.265625 12.695312 C 4.449219 12.769531 4.609375 12.875 4.746094 13.015625 C 4.886719 13.152344 4.992188 13.3125 5.066406 13.496094 C 5.144531 13.675781 5.179688 13.863281 5.179688 14.0625 C 5.179688 14.257812 5.144531 14.445312 5.066406 14.628906 C 4.992188 14.808594 4.886719 14.96875 4.746094 15.109375 C 4.609375 15.246094 4.449219 15.355469 4.265625 15.429688 C 4.085938 15.503906 3.898438 15.542969 3.699219 15.542969 C 3.503906 15.542969 3.316406 15.503906 3.132812 15.429688 C 2.953125 15.355469 2.792969 15.246094 2.652344 15.109375 C 2.515625 14.96875 2.40625 14.808594 2.332031 14.628906 C 2.257812 14.445312 2.21875 14.257812 2.21875 14.0625 Z M 2.21875 8.140625 C 2.21875 7.945312 2.257812 7.753906 2.332031 7.574219 C 2.40625 7.390625 2.515625 7.230469 2.652344 7.09375 C 2.792969 6.953125 2.953125 6.847656 3.132812 6.773438 C 3.316406 6.699219 3.503906 6.660156 3.699219 6.660156 C 3.898438 6.660156 4.085938 6.699219 4.265625 6.773438 C 4.449219 6.847656 4.609375 6.953125 4.746094 7.09375 C 4.886719 7.230469 4.992188 7.390625 5.066406 7.574219 C 5.144531 7.753906 5.179688 7.945312 5.179688 8.140625 C 5.179688 8.335938 5.144531 8.523438 5.066406 8.707031 C 4.992188 8.886719 4.886719 9.046875 4.746094 9.1875 C 4.609375 9.324219 4.449219 9.433594 4.265625 9.507812 C 4.085938 9.582031 3.898438 9.621094 3.699219 9.621094 C 3.503906 9.621094 3.316406 9.582031 3.132812 9.507812 C 2.953125 9.433594 2.792969 9.324219 2.652344 9.1875 C 2.515625 9.046875 2.40625 8.886719 2.332031 8.707031 C 2.257812 8.523438 2.21875 8.335938 2.21875 8.140625 Z M 2.21875 8.140625 " fill-opacity="1" fill-rule="nonzero"/><g clip-path="url(#90c432b78f)"><path stroke-linecap="butt" transform="matrix(0, -0.740132, 0.740132, 0, 33.305919, 33.305919)" fill="none" stroke-linejoin="miter" d="M 0.00166359 2.500003 L 40.001944 2.500003 " stroke="#ff3131" stroke-width="5" stroke-opacity="1" stroke-miterlimit="4"/></g><path stroke-linecap="butt" transform="matrix(0.740132, 0, 0, 0.740132, 3.700658, 32.935853)" fill="none" stroke-linejoin="miter" d="M -0.00194478 0.498336 L 39.998336 0.498336 " stroke="#000000" stroke-width="1" stroke-opacity="1" stroke-miterlimit="4"/><path stroke-linecap="butt" transform="matrix(0.740132, 0, 0, 0.740132, 3.700658, 3.330592)" fill="none" stroke-linejoin="miter" d="M -0.00194478 0.498056 L 39.998336 0.498056 " stroke="#000000" stroke-width="1" stroke-opacity="1" stroke-miterlimit="4"/><path stroke-linecap="butt" transform="matrix(0, -0.740132, 0.740132, 0, 32.935854, 33.305919)" fill="none" stroke-linejoin="miter" d="M 0.00166359 0.498336 L 40.001944 0.498336 " stroke="#000000" stroke-width="1" stroke-opacity="1" stroke-miterlimit="4"/><g fill="#000000" fill-opacity="1"><g transform="translate(7.621042, 24.794407)"><g><path d="M 0.65625 -1.0625 C 0.65625 -1.800781 0.734375 -2.421875 0.890625 -2.921875 C 1.054688 -3.429688 1.320312 -3.894531 1.6875 -4.3125 C 2.050781 -4.726562 2.566406 -5.179688 3.234375 -5.671875 L 5.03125 -6.953125 C 5.519531 -7.304688 5.898438 -7.609375 6.171875 -7.859375 C 6.441406 -8.117188 6.644531 -8.390625 6.78125 -8.671875 C 6.914062 -8.953125 6.984375 -9.269531 6.984375 -9.625 C 6.984375 -10.175781 6.816406 -10.597656 6.484375 -10.890625 C 6.160156 -11.179688 5.671875 -11.328125 5.015625 -11.328125 C 4.378906 -11.328125 3.8125 -11.175781 3.3125 -10.875 C 2.820312 -10.570312 2.414062 -10.160156 2.09375 -9.640625 L 1.90625 -9.59375 L 0.453125 -11.21875 C 0.929688 -11.925781 1.550781 -12.492188 2.3125 -12.921875 C 3.082031 -13.359375 4.015625 -13.578125 5.109375 -13.578125 C 6.109375 -13.578125 6.945312 -13.410156 7.625 -13.078125 C 8.300781 -12.753906 8.800781 -12.304688 9.125 -11.734375 C 9.445312 -11.160156 9.609375 -10.503906 9.609375 -9.765625 C 9.609375 -9.128906 9.472656 -8.546875 9.203125 -8.015625 C 8.941406 -7.492188 8.578125 -7.007812 8.109375 -6.5625 C 7.640625 -6.125 7.039062 -5.648438 6.3125 -5.140625 L 4.71875 -4.03125 C 4.25 -3.6875 3.914062 -3.378906 3.71875 -3.109375 C 3.53125 -2.847656 3.4375 -2.550781 3.4375 -2.21875 L 9.484375 -2.21875 L 9.484375 0 L 0.65625 0 Z M 0.65625 -1.0625 "/></g></g></g><g fill="#000000" fill-opacity="1"><g transform="translate(17.717215, 24.794407)"><g><path d="M 9.09375 0 L 6.5625 0 L 6.5625 -2.90625 L 0.453125 -2.90625 L 0.453125 -5.046875 L 5.703125 -13.390625 L 9.09375 -13.390625 L 9.09375 -5.046875 L 11.15625 -5.046875 L 11.15625 -2.90625 L 9.09375 -2.90625 Z M 3.171875 -5.234375 L 3.25 -5.046875 L 6.5625 -5.046875 L 6.5625 -10.21875 L 6.34375 -10.265625 Z M 3.171875 -5.234375 "/></g></g></g></svg>