<svg xmlns="http://www.w3.org/2000/svg" xmlns:xlink="http://www.w3.org/1999/xlink" width="50" zoomAndPan="magnify" viewBox="0 0 37.5 37.499999" height="50" preserveAspectRatio="xMidYMid meet" version="1.0"><defs><g/><clipPath id="7b7a956751"><path d="M 3.699219 3.699219 L 33.304688 3.699219 L 33.304688 33.304688 L 3.699219 33.304688 Z M 3.699219 3.699219 " clip-rule="nonzero"/></clipPath><clipPath id="669db98d10"><path d="M 0.699219 0.699219 L 30.304688 0.699219 L 30.304688 30.304688 L 0.699219 30.304688 Z M 0.699219 0.699219 " clip-rule="nonzero"/></clipPath><clipPath id="d74d9a42c0"><rect x="0" width="31" y="0" height="31"/></clipPath></defs><g clip-path="url(#7b7a956751)"><g transform="matrix(1, 0, 0, 1, 3, 3)"><g clip-path="url(#d74d9a42c0)"><g clip-path="url(#669db98d10)"><path fill="#d9d9d9" d="M 30.304688 0.699219 L 30.304688 30.304688 L 0.699219 30.304688 L 0.699219 0.699219 Z M 30.304688 0.699219 " fill-opacity="1" fill-rule="nonzero"/></g></g></g></g><path stroke-linecap="butt" transform="matrix(0, -0.740132, 0.740132, 0, 0.0000005, 33.305919)" fill="none" stroke-linejoin="miter" d="M 0.00166359 2.501666 L 40.001944 2.501666 " stroke="#ff3131" stroke-width="5" stroke-opacity="1" stroke-miterlimit="4"/><path fill="#004aad" d="M 34.785156 5.179688 C 34.785156 5.378906 34.75 5.566406 34.671875 5.746094 C 34.597656 5.929688 34.492188 6.089844 34.351562 6.226562 C 34.214844 6.367188 34.054688 6.472656 33.871094 6.546875 C 33.691406 6.625 33.503906 6.660156 33.304688 6.660156 C 33.109375 6.660156 32.921875 6.625 32.738281 6.546875 C 32.558594 6.472656 32.398438 6.367188 32.257812 6.226562 C 32.121094 6.089844 32.011719 5.929688 31.9375 5.746094 C 31.863281 5.566406 31.824219 5.378906 31.824219 5.179688 C 31.824219 4.984375 31.863281 4.796875 31.9375 4.613281 C 32.011719 4.433594 32.121094 4.273438 32.257812 4.132812 C 32.398438 3.996094 32.558594 3.886719 32.738281 3.8125 C 32.921875 3.738281 33.109375 3.699219 33.304688 3.699219 C 33.503906 3.699219 33.691406 3.738281 33.871094 3.8125 C 34.054688 3.886719 34.214844 3.996094 34.351562 4.132812 C 34.492188 4.273438 34.597656 4.433594 34.671875 4.613281 C 34.75 4.796875 34.785156 4.984375 34.785156 5.179688 Z M 34.785156 11.101562 C 34.785156 11.300781 34.75 11.488281 34.671875 11.667969 C 34.597656 11.851562 34.492188 12.011719 34.351562 12.148438 C 34.214844 12.289062 34.054688 12.394531 33.871094 12.46875 C 33.691406 12.546875 33.503906 12.582031 33.304688 12.582031 C 33.109375 12.582031 32.921875 12.546875 32.738281 12.46875 C 32.558594 12.394531 32.398438 12.289062 32.257812 12.148438 C 32.121094 12.011719 32.011719 11.851562 31.9375 11.667969 C 31.863281 11.488281 31.824219 11.300781 31.824219 11.101562 C 31.824219 10.90625 31.863281 10.71875 31.9375 10.535156 C 32.011719 10.355469 32.121094 10.195312 32.257812 10.054688 C 32.398438 9.917969 32.558594 9.808594 32.738281 9.734375 C 32.921875 9.660156 33.109375 9.621094 33.304688 9.621094 C 33.503906 9.621094 33.691406 9.660156 33.871094 9.734375 C 34.054688 9.808594 34.214844 9.917969 34.351562 10.054688 C 34.492188 10.195312 34.597656 10.355469 34.671875 10.535156 C 34.75 10.71875 34.785156 10.90625 34.785156 11.101562 Z M 34.785156 17.023438 C 34.785156 17.21875 34.75 17.410156 34.671875 17.589844 C 34.597656 17.773438 34.492188 17.933594 34.351562 18.070312 C 34.214844 18.210938 34.054688 18.316406 33.871094 18.390625 C 33.691406 18.464844 33.503906 18.503906 33.304688 18.503906 C 33.109375 18.503906 32.921875 18.464844 32.738281 18.390625 C 32.558594 18.316406 32.398438 18.210938 32.257812 18.070312 C 32.121094 17.933594 32.011719 17.773438 31.9375 17.589844 C 31.863281 17.410156 31.824219 17.21875 31.824219 17.023438 C 31.824219 16.828125 31.863281 16.636719 31.9375 16.457031 C 32.011719 16.277344 32.121094 16.117188 32.257812 15.976562 C 32.398438 15.839844 32.558594 15.730469 32.738281 15.65625 C 32.921875 15.582031 33.109375 15.542969 33.304688 15.542969 C 33.503906 15.542969 33.691406 15.582031 33.871094 15.65625 C 34.054688 15.730469 34.214844 15.839844 34.351562 15.976562 C 34.492188 16.117188 34.597656 16.277344 34.671875 16.457031 C 34.75 16.636719 34.785156 16.828125 34.785156 17.023438 Z M 34.785156 22.945312 C 34.785156 23.140625 34.75 23.332031 34.671875 23.511719 C 34.597656 23.691406 34.492188 23.851562 34.351562 23.992188 C 34.214844 24.128906 34.054688 24.238281 33.871094 24.3125 C 33.691406 24.386719 33.503906 24.425781 33.304688 24.425781 C 33.109375 24.425781 32.921875 24.386719 32.738281 24.3125 C 32.558594 24.238281 32.398438 24.128906 32.257812 23.992188 C 32.121094 23.851562 32.011719 23.691406 31.9375 23.511719 C 31.863281 23.332031 31.824219 23.140625 31.824219 22.945312 C 31.824219 22.75 31.863281 22.558594 31.9375 22.378906 C 32.011719 22.195312 32.121094 22.035156 32.257812 21.898438 C 32.398438 21.757812 32.558594 21.652344 32.738281 21.578125 C 32.921875 21.503906 33.109375 21.464844 33.304688 21.464844 C 33.503906 21.464844 33.691406 21.503906 33.871094 21.578125 C 34.054688 21.652344 34.214844 21.757812 34.351562 21.898438 C 34.492188 22.035156 34.597656 22.195312 34.671875 22.378906 C 34.75 22.558594 34.785156 22.75 34.785156 22.945312 Z M 34.785156 28.867188 C 34.785156 29.0625 34.75 29.25 34.671875 29.433594 C 34.597656 29.613281 34.492188 29.773438 34.351562 29.914062 C 34.214844 30.050781 34.054688 30.160156 33.871094 30.234375 C 33.691406 30.308594 33.503906 30.347656 33.304688 30.347656 C 33.109375 30.347656 32.921875 30.308594 32.738281 30.234375 C 32.558594 30.160156 32.398438 30.050781 32.257812 29.914062 C 32.121094 29.773438 32.011719 29.613281 31.9375 29.433594 C 31.863281 29.25 31.824219 29.0625 31.824219 28.867188 C 31.824219 28.671875 31.863281 28.480469 31.9375 28.300781 C 32.011719 28.117188 32.121094 27.957031 32.257812 27.820312 C 32.398438 27.679688 32.558594 27.574219 32.738281 27.5 C 32.921875 27.421875 33.109375 27.386719 33.304688 27.386719 C 33.503906 27.386719 33.691406 27.421875 33.871094 27.5 C 34.054688 27.574219 34.214844 27.679688 34.351562 27.820312 C 34.492188 27.957031 34.597656 28.117188 34.671875 28.300781 C 34.75 28.480469 34.785156 28.671875 34.785156 28.867188 Z M 34.785156 28.867188 " fill-opacity="1" fill-rule="nonzero"/><path fill="#004aad" d="M 31.824219 5.179688 C 31.628906 5.179688 31.441406 5.144531 31.257812 5.066406 C 31.078125 4.992188 30.917969 4.886719 30.777344 4.746094 C 30.640625 4.609375 30.53125 4.449219 30.457031 4.265625 C 30.382812 4.085938 30.34375 3.898438 30.34375 3.699219 C 30.34375 3.503906 30.382812 3.316406 30.457031 3.132812 C 30.53125 2.953125 30.640625 2.792969 30.777344 2.652344 C 30.917969 2.515625 31.078125 2.40625 31.257812 2.332031 C 31.441406 2.257812 31.628906 2.21875 31.824219 2.21875 C 32.023438 2.21875 32.210938 2.257812 32.390625 2.332031 C 32.574219 2.40625 32.734375 2.515625 32.871094 2.652344 C 33.011719 2.792969 33.117188 2.953125 33.191406 3.132812 C 33.269531 3.316406 33.304688 3.503906 33.304688 3.699219 C 33.304688 3.898438 33.269531 4.085938 33.191406 4.265625 C 33.117188 4.449219 33.011719 4.609375 32.871094 4.746094 C 32.734375 4.886719 32.574219 4.992188 32.390625 5.066406 C 32.210938 5.144531 32.023438 5.179688 31.824219 5.179688 Z M 25.90625 5.179688 L 25.902344 5.179688 C 25.707031 5.179688 25.519531 5.144531 25.335938 5.066406 C 25.15625 4.992188 24.996094 4.886719 24.855469 4.746094 C 24.71875 4.609375 24.613281 4.449219 24.535156 4.265625 C 24.460938 4.085938 24.421875 3.898438 24.421875 3.699219 C 24.421875 3.503906 24.460938 3.316406 24.535156 3.132812 C 24.613281 2.953125 24.71875 2.792969 24.855469 2.652344 C 24.996094 2.515625 25.15625 2.40625 25.335938 2.332031 C 25.519531 2.257812 25.707031 2.21875 25.902344 2.21875 L 25.90625 2.21875 C 26.101562 2.21875 26.289062 2.257812 26.472656 2.332031 C 26.652344 2.40625 26.8125 2.515625 26.949219 2.652344 C 27.089844 2.792969 27.195312 2.953125 27.273438 3.132812 C 27.347656 3.316406 27.382812 3.503906 27.382812 3.699219 C 27.382812 3.898438 27.347656 4.085938 27.273438 4.265625 C 27.195312 4.449219 27.089844 4.609375 26.949219 4.746094 C 26.8125 4.886719 26.652344 4.992188 26.472656 5.066406 C 26.289062 5.144531 26.101562 5.179688 25.90625 5.179688 Z M 19.984375 5.179688 C 19.785156 5.179688 19.597656 5.144531 19.417969 5.066406 C 19.234375 4.992188 19.074219 4.886719 18.9375 4.746094 C 18.796875 4.609375 18.691406 4.449219 18.613281 4.265625 C 18.539062 4.085938 18.503906 3.898438 18.503906 3.699219 C 18.503906 3.503906 18.539062 3.316406 18.613281 3.132812 C 18.691406 2.953125 18.796875 2.792969 18.9375 2.652344 C 19.074219 2.515625 19.234375 2.40625 19.417969 2.332031 C 19.597656 2.257812 19.785156 2.21875 19.984375 2.21875 C 20.179688 2.21875 20.367188 2.257812 20.550781 2.332031 C 20.730469 2.40625 20.890625 2.515625 21.03125 2.652344 C 21.167969 2.792969 21.277344 2.953125 21.351562 3.132812 C 21.425781 3.316406 21.464844 3.503906 21.464844 3.699219 C 21.464844 3.898438 21.425781 4.085938 21.351562 4.265625 C 21.277344 4.449219 21.167969 4.609375 21.03125 4.746094 C 20.890625 4.886719 20.730469 4.992188 20.550781 5.066406 C 20.367188 5.144531 20.179688 5.179688 19.984375 5.179688 Z M 14.0625 5.179688 C 13.863281 5.179688 13.675781 5.144531 13.496094 5.066406 C 13.3125 4.992188 13.152344 4.886719 13.015625 4.746094 C 12.875 4.609375 12.769531 4.449219 12.695312 4.265625 C 12.617188 4.085938 12.582031 3.898438 12.582031 3.699219 C 12.582031 3.503906 12.617188 3.316406 12.695312 3.132812 C 12.769531 2.953125 12.875 2.792969 13.015625 2.652344 C 13.152344 2.515625 13.3125 2.40625 13.496094 2.332031 C 13.675781 2.257812 13.863281 2.21875 14.0625 2.21875 C 14.257812 2.21875 14.445312 2.257812 14.628906 2.332031 C 14.808594 2.40625 14.96875 2.515625 15.109375 2.652344 C 15.246094 2.792969 15.355469 2.953125 15.429688 3.132812 C 15.503906 3.316406 15.542969 3.503906 15.542969 3.699219 C 15.542969 3.898438 15.503906 4.085938 15.429688 4.265625 C 15.355469 4.449219 15.246094 4.609375 15.109375 4.746094 C 14.96875 4.886719 14.808594 4.992188 14.628906 5.066406 C 14.445312 5.144531 14.257812 5.179688 14.0625 5.179688 Z M 8.140625 5.179688 C 7.945312 5.179688 7.753906 5.144531 7.574219 5.066406 C 7.390625 4.992188 7.230469 4.886719 7.09375 4.746094 C 6.953125 4.609375 6.847656 4.449219 6.773438 4.265625 C 6.699219 4.085938 6.660156 3.898438 6.660156 3.699219 C 6.660156 3.503906 6.699219 3.316406 6.773438 3.132812 C 6.847656 2.953125 6.953125 2.792969 7.09375 2.652344 C 7.230469 2.515625 7.390625 2.40625 7.574219 2.332031 C 7.753906 2.257812 7.945312 2.21875 8.140625 2.21875 C 8.335938 2.21875 8.523438 2.257812 8.707031 2.332031 C 8.886719 2.40625 9.046875 2.515625 9.1875 2.652344 C 9.324219 2.792969 9.433594 2.953125 9.507812 3.132812 C 9.582031 3.316406 9.621094 3.503906 9.621094 3.699219 C 9.621094 3.898438 9.582031 4.085938 9.507812 4.265625 C 9.433594 4.449219 9.324219 4.609375 9.1875 4.746094 C 9.046875 4.886719 8.886719 4.992188 8.707031 5.066406 C 8.523438 5.144531 8.335938 5.179688 8.140625 5.179688 Z M 8.140625 5.179688 " fill-opacity="1" fill-rule="nonzero"/><path fill="#004aad" d="M 31.824219 34.785156 C 31.628906 34.785156 31.441406 34.75 31.257812 34.671875 C 31.078125 34.597656 30.917969 34.492188 30.777344 34.351562 C 30.640625 34.214844 30.53125 34.054688 30.457031 33.871094 C 30.382812 33.691406 30.34375 33.503906 30.34375 33.304688 C 30.34375 33.109375 30.382812 32.921875 30.457031 32.738281 C 30.53125 32.558594 30.640625 32.398438 30.777344 32.257812 C 30.917969 32.121094 31.078125 32.011719 31.257812 31.9375 C 31.441406 31.863281 31.628906 31.824219 31.824219 31.824219 C 32.023438 31.824219 32.210938 31.863281 32.390625 31.9375 C 32.574219 32.011719 32.734375 32.121094 32.871094 32.257812 C 33.011719 32.398438 33.117188 32.558594 33.191406 32.738281 C 33.269531 32.921875 33.304688 33.109375 33.304688 33.304688 C 33.304688 33.503906 33.269531 33.691406 33.191406 33.871094 C 33.117188 34.054688 33.011719 34.214844 32.871094 34.351562 C 32.734375 34.492188 32.574219 34.597656 32.390625 34.671875 C 32.210938 34.75 32.023438 34.785156 31.824219 34.785156 Z M 25.90625 34.785156 L 25.902344 34.785156 C 25.707031 34.785156 25.519531 34.75 25.335938 34.671875 C 25.15625 34.597656 24.996094 34.492188 24.855469 34.351562 C 24.71875 34.214844 24.613281 34.054688 24.535156 33.871094 C 24.460938 33.691406 24.421875 33.503906 24.421875 33.304688 C 24.421875 33.109375 24.460938 32.921875 24.535156 32.738281 C 24.613281 32.558594 24.71875 32.398438 24.855469 32.257812 C 24.996094 32.121094 25.15625 32.011719 25.335938 31.9375 C 25.519531 31.863281 25.707031 31.824219 25.902344 31.824219 L 25.90625 31.824219 C 26.101562 31.824219 26.289062 31.863281 26.472656 31.9375 C 26.652344 32.011719 26.8125 32.121094 26.949219 32.257812 C 27.089844 32.398438 27.195312 32.558594 27.273438 32.738281 C 27.347656 32.921875 27.382812 33.109375 27.382812 33.304688 C 27.382812 33.503906 27.347656 33.691406 27.273438 33.871094 C 27.195312 34.054688 27.089844 34.214844 26.949219 34.351562 C 26.8125 34.492188 26.652344 34.597656 26.472656 34.671875 C 26.289062 34.75 26.101562 34.785156 25.90625 34.785156 Z M 19.984375 34.785156 C 19.785156 34.785156 19.597656 34.75 19.417969 34.671875 C 19.234375 34.597656 19.074219 34.492188 18.9375 34.351562 C 18.796875 34.214844 18.691406 34.054688 18.613281 33.871094 C 18.539062 33.691406 18.503906 33.503906 18.503906 33.304688 C 18.503906 33.109375 18.539062 32.921875 18.613281 32.738281 C 18.691406 32.558594 18.796875 32.398438 18.9375 32.257812 C 19.074219 32.121094 19.234375 32.011719 19.417969 31.9375 C 19.597656 31.863281 19.785156 31.824219 19.984375 31.824219 C 20.179688 31.824219 20.367188 31.863281 20.550781 31.9375 C 20.730469 32.011719 20.890625 32.121094 21.03125 32.257812 C 21.167969 32.398438 21.277344 32.558594 21.351562 32.738281 C 21.425781 32.921875 21.464844 33.109375 21.464844 33.304688 C 21.464844 33.503906 21.425781 33.691406 21.351562 33.871094 C 21.277344 34.054688 21.167969 34.214844 21.03125 34.351562 C 20.890625 34.492188 20.730469 34.597656 20.550781 34.671875 C 20.367188 34.75 20.179688 34.785156 19.984375 34.785156 Z M 14.0625 34.785156 C 13.863281 34.785156 13.675781 34.75 13.496094 34.671875 C 13.3125 34.597656 13.152344 34.492188 13.015625 34.351562 C 12.875 34.214844 12.769531 34.054688 12.695312 33.871094 C 12.617188 33.691406 12.582031 33.503906 12.582031 33.304688 C 12.582031 33.109375 12.617188 32.921875 12.695312 32.738281 C 12.769531 32.558594 12.875 32.398438 13.015625 32.257812 C 13.152344 32.121094 13.3125 32.011719 13.496094 31.9375 C 13.675781 31.863281 13.863281 31.824219 14.0625 31.824219 C 14.257812 31.824219 14.445312 31.863281 14.628906 31.9375 C 14.808594 32.011719 14.96875 32.121094 15.109375 32.257812 C 15.246094 32.398438 15.355469 32.558594 15.429688 32.738281 C 15.503906 32.921875 15.542969 33.109375 15.542969 33.304688 C 15.542969 33.503906 15.503906 33.691406 15.429688 33.871094 C 15.355469 34.054688 15.246094 34.214844 15.109375 34.351562 C 14.96875 34.492188 14.808594 34.597656 14.628906 34.671875 C 14.445312 34.75 14.257812 34.785156 14.0625 34.785156 Z M 8.140625 34.785156 C 7.945312 34.785156 7.753906 34.75 7.574219 34.671875 C 7.390625 34.597656 7.230469 34.492188 7.09375 34.351562 C 6.953125 34.214844 6.847656 34.054688 6.773438 33.871094 C 6.699219 33.691406 6.660156 33.503906 6.660156 33.304688 C 6.660156 33.109375 6.699219 32.921875 6.773438 32.738281 C 6.847656 32.558594 6.953125 32.398438 7.09375 32.257812 C 7.230469 32.121094 7.390625 32.011719 7.574219 31.9375 C 7.753906 31.863281 7.945312 31.824219 8.140625 31.824219 C 8.335938 31.824219 8.523438 31.863281 8.707031 31.9375 C 8.886719 32.011719 9.046875 32.121094 9.1875 32.257812 C 9.324219 32.398438 9.433594 32.558594 9.507812 32.738281 C 9.582031 32.921875 9.621094 33.109375 9.621094 33.304688 C 9.621094 33.503906 9.582031 33.691406 9.507812 33.871094 C 9.433594 34.054688 9.324219 34.214844 9.1875 34.351562 C 9.046875 34.492188 8.886719 34.597656 8.707031 34.671875 C 8.523438 34.75 8.335938 34.785156 8.140625 34.785156 Z M 8.140625 34.785156 " fill-opacity="1" fill-rule="nonzero"/><path stroke-linecap="butt" transform="matrix(0, 0.740132, -0.740132, 0, 4.070724, 3.700658)" fill="none" stroke-linejoin="miter" d="M -0.0019441 0.501945 L 39.998336 0.501945 " stroke="#000000" stroke-width="1" stroke-opacity="1" stroke-miterlimit="4"/><g fill="#000000" fill-opacity="1"><g transform="translate(8.418997, 24.794406)"><g><path d="M 4.453125 0 L 1.75 0 L 6.359375 -10.96875 L 6.3125 -11.15625 L 0.359375 -11.15625 L 0.359375 -13.390625 L 9.046875 -13.390625 L 9.046875 -11.046875 Z M 4.453125 0 "/></g></g></g><g fill="#000000" fill-opacity="1"><g transform="translate(18.13992, 24.794406)"><g><path d="M 0.65625 -1.0625 C 0.65625 -1.800781 0.734375 -2.421875 0.890625 -2.921875 C 1.054688 -3.429688 1.320312 -3.894531 1.6875 -4.3125 C 2.050781 -4.726562 2.566406 -5.179688 3.234375 -5.671875 L 5.03125 -6.953125 C 5.519531 -7.304688 5.898438 -7.609375 6.171875 -7.859375 C 6.441406 -8.117188 6.644531 -8.390625 6.78125 -8.671875 C 6.914062 -8.953125 6.984375 -9.269531 6.984375 -9.625 C 6.984375 -10.175781 6.816406 -10.597656 6.484375 -10.890625 C 6.160156 -11.179688 5.671875 -11.328125 5.015625 -11.328125 C 4.378906 -11.328125 3.8125 -11.175781 3.3125 -10.875 C 2.820312 -10.570312 2.414062 -10.160156 2.09375 -9.640625 L 1.90625 -9.59375 L 0.453125 -11.21875 C 0.929688 -11.925781 1.550781 -12.492188 2.3125 -12.921875 C 3.082031 -13.359375 4.015625 -13.578125 5.109375 -13.578125 C 6.109375 -13.578125 6.945312 -13.410156 7.625 -13.078125 C 8.300781 -12.753906 8.800781 -12.304688 9.125 -11.734375 C 9.445312 -11.160156 9.609375 -10.503906 9.609375 -9.765625 C 9.609375 -9.128906 9.472656 -8.546875 9.203125 -8.015625 C 8.941406 -7.492188 8.578125 -7.007812 8.109375 -6.5625 C 7.640625 -6.125 7.039062 -5.648438 6.3125 -5.140625 L 4.71875 -4.03125 C 4.25 -3.6875 3.914062 -3.378906 3.71875 -3.109375 C 3.53125 -2.847656 3.4375 -2.550781 3.4375 -2.21875 L 9.484375 -2.21875 L 9.484375 0 L 0.65625 0 Z M 0.65625 -1.0625 "/></g></g></g></svg>