{
  "asset": {
    "version": "2.0",
    "generator": "motor-fea gen_maqueta"
  },
  "scenes": [
    {
      "nodes": [
        0
      ]
    }
  ],
  "scene": 0,
  "nodes": [
    {
      "mesh": 0
    }
  ],
  "meshes": [
    {
      "primitives": [
        {
          "attributes": {
            "POSITION": 0
          },
          "indices": 1
        }
      ]
    }
  ],
  "buffers": [
    {
      "byteLength": 336,
      "uri": "data:application/octet-stream;base64,"
    }
  ],
  "bufferViews": [
    {
      "buffer": 0,
      "byteOffset": 0,
      "byteLength": 192,
      "target": 34962
    },
    {
      "buffer": 0,
      "byteOffset": 192,
      "byteLength": 144,
      "target": 34963
    }
  ],
  "accessors": [
    {
      "bufferView": 0,
      "componentType": 5126,
      "count": 16,
      "type": "VEC3",
      "min": [
        -10.0,
        -0.2,
        -10.0
      ],
      "max": [
        10.0,
        3.0,
        10.0
      ]
    },
    {
      "bufferView": 1,
      "componentType": 5123,
      "count": 72,
      "type": "SCALAR"
    }
  ]
}